<?xml version="1.0" standalone="no"?>
<!DOCTYPE svg PUBLIC "-//W3C//DTD SVG 20010904//EN"
 "http://www.w3.org/TR/2001/REC-SVG-20010904/DTD/svg10.dtd">
<svg version="1.0" xmlns="http://www.w3.org/2000/svg"
 width="32.000000pt" height="31.000000pt" viewBox="0 0 32.000000 31.000000"
 preserveAspectRatio="xMidYMid meet">

<g transform="translate(0.000000,31.000000) scale(0.100000,-0.100000)"
fill="#000000" stroke="none">
<path d="M130 279 c-7 -11 -8 -28 -4 -37 8 -18 11 -28 13 -49 1 -14 41 -18 42
-5 0 4 2 23 4 42 2 19 2 43 -1 53 -7 24 -41 22 -54 -4z"/>
<path d="M98 203 c-10 -2 -18 -9 -18 -14 0 -6 -14 -39 -31 -75 -17 -36 -30
-67 -27 -69 8 -9 81 99 88 132 5 18 7 32 6 32 0 -1 -9 -3 -18 -6z"/>
<path d="M205 178 c4 -13 16 -33 27 -45 20 -21 20 -21 0 -32 -12 -6 -28 -11
-36 -11 -17 0 -22 -15 -8 -24 13 -8 82 27 82 41 0 26 -41 93 -56 93 -11 0 -14
-6 -9 -22z"/>
</g>
</svg>
