<?xml version="1.0" standalone="no"?>
<!DOCTYPE svg PUBLIC "-//W3C//DTD SVG 20010904//EN"
 "http://www.w3.org/TR/2001/REC-SVG-20010904/DTD/svg10.dtd">
<svg version="1.0" xmlns="http://www.w3.org/2000/svg"
 width="157.000000pt" height="73.000000pt" viewBox="0 0 157.000000 73.000000"
 preserveAspectRatio="xMidYMid meet">

<g transform="translate(0.000000,73.000000) scale(0.100000,-0.100000)"
fill="#000000" stroke="none">
<path d="M155 706 c-3 -9 -7 -23 -10 -32 -3 -9 0 -23 6 -30 6 -8 9 -20 6 -28
-8 -21 16 -49 39 -44 14 2 19 12 19 33 0 17 3 35 7 41 4 6 4 24 -1 40 -5 22
-14 30 -34 32 -18 2 -29 -2 -32 -12z"/>
<path d="M243 575 c4 -21 15 -44 27 -52 28 -20 25 -42 -7 -49 -53 -11 -56 -13
-44 -28 10 -12 16 -12 39 0 15 8 32 14 38 14 6 0 16 6 22 13 14 17 -30 112
-60 128 -20 11 -21 10 -15 -26z"/>
<path d="M97 593 c-4 -3 -7 -12 -7 -19 0 -8 -16 -46 -35 -85 -38 -78 -39 -99
-3 -53 52 65 78 111 78 137 0 25 -17 36 -33 20z"/>
<path d="M406 557 c-28 -21 -18 -78 17 -95 15 -7 27 -17 27 -23 0 -12 -27 -12
-35 1 -11 18 -25 10 -25 -15 0 -20 6 -25 34 -30 41 -8 74 7 82 39 8 32 -10 62
-41 70 -39 10 -31 28 10 20 28 -5 35 -3 35 10 0 32 -70 48 -104 23z"/>
<path d="M733 550 c-45 -18 -58 -90 -24 -131 24 -30 91 -33 118 -6 23 22 24
100 3 121 -20 20 -69 28 -97 16z m62 -59 c8 -26 -4 -51 -25 -51 -10 0 -21 7
-24 16 -10 25 3 54 24 54 10 0 21 -8 25 -19z"/>
<path d="M1190 540 c-29 -29 -25 -58 10 -78 36 -21 39 -36 5 -28 -20 5 -25 3
-25 -13 0 -34 54 -42 90 -13 32 26 21 69 -20 84 -35 12 -30 31 6 22 19 -5 24
-2 24 14 0 12 -9 22 -22 26 -36 9 -47 7 -68 -14z"/>
<path d="M534 475 l0 -75 39 0 c39 0 39 1 34 30 -6 27 -4 30 18 30 24 0 55 23
55 41 0 6 -5 19 -10 30 -9 16 -22 19 -73 19 l-63 0 0 -75z m86 30 c0 -14 -4
-25 -10 -25 -5 0 -10 11 -10 25 0 14 5 25 10 25 6 0 10 -11 10 -25z"/>
<path d="M874 475 c0 -75 0 -75 28 -75 22 0 27 5 30 28 l4 27 12 -27 c8 -20
19 -28 37 -28 27 0 33 18 13 38 -10 10 -10 17 0 32 17 28 15 67 -4 74 -9 3
-39 6 -68 6 l-52 0 0 -75z m84 27 c2 -15 -2 -22 -12 -22 -11 0 -16 9 -16 26 0
31 23 28 28 -4z"/>
<path d="M1030 526 c0 -20 4 -23 22 -18 20 5 21 3 14 -51 l-6 -57 35 0 35 0
-6 56 c-7 54 -6 56 14 49 19 -5 22 -2 22 19 0 25 -2 26 -65 26 -62 0 -65 -1
-65 -24z"/>
<path d="M206 493 c-6 -14 -5 -15 5 -6 7 7 10 15 7 18 -3 3 -9 -2 -12 -12z"/>
<path d="M162 474 c10 -10 20 -16 22 -13 3 3 -5 11 -17 18 -21 13 -21 12 -5
-5z"/>
<path d="M394 260 l0 -90 39 0 c39 0 40 0 34 34 -5 33 -4 35 31 43 35 8 37 11
37 48 0 44 -14 52 -95 54 l-46 1 0 -90z m92 21 c-13 -20 -26 -11 -26 16 0 25
1 26 16 11 9 -9 13 -21 10 -27z"/>
<path d="M1343 330 c-12 -5 -24 -18 -28 -30 -8 -25 18 -70 40 -70 8 0 15 -7
15 -15 0 -17 -16 -20 -25 -5 -10 17 -25 11 -25 -9 0 -35 66 -43 95 -11 25 28
13 68 -25 82 -35 12 -30 31 6 22 20 -5 24 -2 24 15 0 12 -6 21 -14 21 -8 0
-20 2 -28 4 -7 3 -23 1 -35 -4z"/>
<path d="M90 274 c2 -111 -12 -238 -28 -256 -14 -17 -13 -18 11 -18 22 0 27 5
27 24 0 14 5 37 11 53 6 15 14 51 19 78 4 28 13 71 21 97 15 53 10 63 -34 74
l-28 6 1 -58z"/>
<path d="M570 288 c-6 -24 -16 -53 -22 -65 -6 -12 -8 -29 -5 -37 8 -20 47 -21
47 -1 0 9 9 15 25 15 16 0 25 -6 25 -15 0 -10 10 -15 26 -15 29 0 29 6 2 105
-13 47 -16 50 -51 53 -35 3 -36 2 -47 -40z m60 -40 c0 -10 -7 -18 -15 -18 -17
0 -18 4 -8 38 4 18 8 20 14 10 5 -7 9 -21 9 -30z"/>
<path d="M714 250 l0 -80 27 0 c24 0 28 5 32 33 l3 32 13 -32 c10 -25 19 -33
37 -33 27 0 31 18 13 53 -9 16 -9 22 0 25 17 6 14 69 -5 76 -9 3 -39 6 -67 6
l-52 0 -1 -80z m86 29 c0 -10 -7 -19 -15 -19 -15 0 -21 31 -9 43 11 10 24 -3
24 -24z"/>
<path d="M900 288 c-6 -24 -15 -51 -20 -60 -19 -33 -12 -58 15 -58 16 0 25 6
25 15 0 9 9 15 25 15 16 0 25 -6 25 -15 0 -9 9 -15 25 -15 31 0 31 11 4 95
-20 63 -22 65 -54 65 -32 0 -35 -3 -45 -42z m60 -40 c0 -10 -7 -18 -15 -18
-17 0 -18 4 -8 38 4 18 8 20 14 10 5 -7 9 -21 9 -30z"/>
<path d="M1044 250 l0 -80 30 0 c61 0 104 19 114 50 12 33 6 67 -16 93 -11 12
-30 17 -71 17 l-56 0 -1 -80z m96 5 c0 -28 -4 -35 -20 -35 -16 0 -20 7 -20 35
0 28 4 35 20 35 16 0 20 -7 20 -35z"/>
<path d="M1224 250 l0 -80 31 0 31 0 0 80 -1 80 -30 0 -30 0 -1 -80z"/>
<path d="M1454 250 l0 -80 53 0 c52 0 53 1 53 29 0 25 -3 28 -25 23 -15 -2
-25 0 -25 7 0 6 7 11 15 11 8 0 15 5 15 10 0 6 -7 10 -15 10 -8 0 -15 7 -15
16 0 12 6 15 25 10 22 -6 25 -3 25 19 0 24 -3 25 -53 25 l-52 0 -1 -80z"/>
<path d="M180 236 c0 -60 21 -77 55 -45 40 38 26 82 -27 86 -27 2 -28 -1 -28
-41z"/>
</g>
</svg>
